<svg width="526" height="526" viewBox="0 0 526 526" fill="none" xmlns="http://www.w3.org/2000/svg" xmlns:xlink="http://www.w3.org/1999/xlink">
<rect x="3.5" y="3.5" width="519" height="519" rx="58.5" fill="#D9D9D9" stroke="#474747" stroke-width="7"/>
<g filter="url(#filter0_i_205_683)">
<rect x="7" y="7" width="512" height="512" rx="55" fill="url(#paint0_linear_205_683)"/>
</g>
<rect x="15" y="15" width="496" height="496" rx="47" stroke="#A3A3A3" stroke-width="16"/>
<g filter="url(#filter1_f_205_683)">
<g clip-path="url(#clip0_205_683)">
<mask id="mask0_205_683" style="mask-type:alpha" maskUnits="userSpaceOnUse" x="4" y="-228" width="550" height="1015">
<rect x="349.689" y="-228" width="60" height="1001" transform="rotate(20.2028 349.689 -228)" fill="white"/>
<rect x="418.198" y="-202.79" width="80" height="1001" transform="rotate(20.2028 418.198 -202.79)" fill="white"/>
<rect x="505.477" y="-170.673" width="51" height="1001" transform="rotate(20.2028 505.477 -170.673)" fill="white"/>
</mask>
<g mask="url(#mask0_205_683)">
<rect x="23" y="23" width="480" height="480" rx="39" fill="white" fill-opacity="0.09"/>
</g>
</g>
</g>
<g opacity="0.7">
<mask id="mask1_205_683" style="mask-type:alpha" maskUnits="userSpaceOnUse" x="23" y="23" width="480" height="480">
<rect x="23" y="23" width="480" height="480" rx="39" fill="url(#pattern0_205_683)"/>
</mask>
<g mask="url(#mask1_205_683)">
<rect x="23" y="23" width="480" height="480" rx="39" fill="url(#paint2_linear_205_683)" fill-opacity="0.8"/>
</g>
</g>
<g filter="url(#filter2_d_205_683)">
<path d="M491 461C491 478.121 477.121 492 460 492H385.919C384.714 492 384.001 490.651 384.68 489.655L390.134 481.655C390.414 481.245 390.878 481 391.374 481H459C470.598 481 480 471.598 480 460V350.316C480 350.015 480.091 349.72 480.261 349.471L488.261 337.738C489.092 336.519 491 337.107 491 338.583V461ZM135.227 45.345C134.947 45.7548 134.484 46 133.988 46H66C54.402 46 45 55.402 45 67V177.211C45 177.513 44.9092 177.807 44.7394 178.056L36.7394 189.79C35.9079 191.009 34 190.421 34 188.945V66C34 48.8792 47.8792 35 65 35H139.442C140.647 35 141.36 36.3493 140.681 37.345L135.227 45.345Z" fill="#E2E2E2"/>
</g>
<g filter="url(#filter3_d_205_683)">
<path d="M408.591 48.5083L415.502 70.3722L433.492 84.5907L411.628 91.5019L397.41 109.492L390.499 87.6277L372.509 73.4092L394.373 66.498L408.591 48.5083Z" fill="#C3C3C3"/>
</g>
<g filter="url(#filter4_d_205_683)">
<path d="M464.665 103.5L463.963 120.336L472.83 134.665L455.994 133.963L441.665 142.83L442.367 125.994L433.5 111.665L450.336 112.367L464.665 103.5Z" fill="#C3C3C3"/>
</g>
<g filter="url(#filter5_d_205_683)">
<path d="M116.407 478.491L109.498 456.627L91.5092 442.407L113.374 435.497L127.594 417.509L134.503 439.373L152.492 453.593L130.627 460.503L116.407 478.491Z" fill="#C3C3C3"/>
</g>
<g filter="url(#filter6_d_205_683)">
<path d="M60.3351 423.5L61.0369 406.664L52.1701 392.335L69.006 393.037L83.3349 384.17L82.6331 401.006L91.4999 415.335L74.664 414.633L60.3351 423.5Z" fill="#C3C3C3"/>
</g>
<defs>
<filter id="filter0_i_205_683" x="7" y="7" width="512" height="516" filterUnits="userSpaceOnUse" color-interpolation-filters="sRGB">
<feFlood flood-opacity="0" result="BackgroundImageFix"/>
<feBlend mode="normal" in="SourceGraphic" in2="BackgroundImageFix" result="shape"/>
<feColorMatrix in="SourceAlpha" type="matrix" values="0 0 0 0 0 0 0 0 0 0 0 0 0 0 0 0 0 0 127 0" result="hardAlpha"/>
<feMorphology radius="1" operator="erode" in="SourceAlpha" result="effect1_innerShadow_205_683"/>
<feOffset dy="4"/>
<feGaussianBlur stdDeviation="37.5"/>
<feComposite in2="hardAlpha" operator="arithmetic" k2="-1" k3="1"/>
<feColorMatrix type="matrix" values="0 0 0 0 0.826923 0 0 0 0 0.826923 0 0 0 0 0.826923 0 0 0 0.6 0"/>
<feBlend mode="normal" in2="shape" result="effect1_innerShadow_205_683"/>
</filter>
<filter id="filter1_f_205_683" x="18" y="18" width="490" height="490" filterUnits="userSpaceOnUse" color-interpolation-filters="sRGB">
<feFlood flood-opacity="0" result="BackgroundImageFix"/>
<feBlend mode="normal" in="SourceGraphic" in2="BackgroundImageFix" result="shape"/>
<feGaussianBlur stdDeviation="2.5" result="effect1_foregroundBlur_205_683"/>
</filter>
<filter id="filter2_d_205_683" x="26" y="27" width="473" height="473" filterUnits="userSpaceOnUse" color-interpolation-filters="sRGB">
<feFlood flood-opacity="0" result="BackgroundImageFix"/>
<feColorMatrix in="SourceAlpha" type="matrix" values="0 0 0 0 0 0 0 0 0 0 0 0 0 0 0 0 0 0 127 0" result="hardAlpha"/>
<feOffset/>
<feGaussianBlur stdDeviation="4"/>
<feComposite in2="hardAlpha" operator="out"/>
<feColorMatrix type="matrix" values="0 0 0 0 0.721154 0 0 0 0 0.721154 0 0 0 0 0.721154 0 0 0 1 0"/>
<feBlend mode="normal" in2="BackgroundImageFix" result="effect1_dropShadow_205_683"/>
<feBlend mode="normal" in="SourceGraphic" in2="effect1_dropShadow_205_683" result="shape"/>
</filter>
<filter id="filter3_d_205_683" x="361.509" y="37.5083" width="82.9834" height="82.9834" filterUnits="userSpaceOnUse" color-interpolation-filters="sRGB">
<feFlood flood-opacity="0" result="BackgroundImageFix"/>
<feColorMatrix in="SourceAlpha" type="matrix" values="0 0 0 0 0 0 0 0 0 0 0 0 0 0 0 0 0 0 127 0" result="hardAlpha"/>
<feOffset/>
<feGaussianBlur stdDeviation="5.5"/>
<feComposite in2="hardAlpha" operator="out"/>
<feColorMatrix type="matrix" values="0 0 0 0 0.754808 0 0 0 0 0.754808 0 0 0 0 0.754808 0 0 0 1 0"/>
<feBlend mode="normal" in2="BackgroundImageFix" result="effect1_dropShadow_205_683"/>
<feBlend mode="normal" in="SourceGraphic" in2="effect1_dropShadow_205_683" result="shape"/>
</filter>
<filter id="filter4_d_205_683" x="422.5" y="92.5" width="61.3301" height="61.3296" filterUnits="userSpaceOnUse" color-interpolation-filters="sRGB">
<feFlood flood-opacity="0" result="BackgroundImageFix"/>
<feColorMatrix in="SourceAlpha" type="matrix" values="0 0 0 0 0 0 0 0 0 0 0 0 0 0 0 0 0 0 127 0" result="hardAlpha"/>
<feOffset/>
<feGaussianBlur stdDeviation="5.5"/>
<feComposite in2="hardAlpha" operator="out"/>
<feColorMatrix type="matrix" values="0 0 0 0 0.754808 0 0 0 0 0.754808 0 0 0 0 0.754808 0 0 0 1 0"/>
<feBlend mode="normal" in2="BackgroundImageFix" result="effect1_dropShadow_205_683"/>
<feBlend mode="normal" in="SourceGraphic" in2="effect1_dropShadow_205_683" result="shape"/>
</filter>
<filter id="filter5_d_205_683" x="80.5088" y="406.509" width="82.9824" height="82.9824" filterUnits="userSpaceOnUse" color-interpolation-filters="sRGB">
<feFlood flood-opacity="0" result="BackgroundImageFix"/>
<feColorMatrix in="SourceAlpha" type="matrix" values="0 0 0 0 0 0 0 0 0 0 0 0 0 0 0 0 0 0 127 0" result="hardAlpha"/>
<feOffset/>
<feGaussianBlur stdDeviation="5.5"/>
<feComposite in2="hardAlpha" operator="out"/>
<feColorMatrix type="matrix" values="0 0 0 0 0.754808 0 0 0 0 0.754808 0 0 0 0 0.754808 0 0 0 1 0"/>
<feBlend mode="normal" in2="BackgroundImageFix" result="effect1_dropShadow_205_683"/>
<feBlend mode="normal" in="SourceGraphic" in2="effect1_dropShadow_205_683" result="shape"/>
</filter>
<filter id="filter6_d_205_683" x="41.1699" y="373.17" width="61.3301" height="61.3296" filterUnits="userSpaceOnUse" color-interpolation-filters="sRGB">
<feFlood flood-opacity="0" result="BackgroundImageFix"/>
<feColorMatrix in="SourceAlpha" type="matrix" values="0 0 0 0 0 0 0 0 0 0 0 0 0 0 0 0 0 0 127 0" result="hardAlpha"/>
<feOffset/>
<feGaussianBlur stdDeviation="5.5"/>
<feComposite in2="hardAlpha" operator="out"/>
<feColorMatrix type="matrix" values="0 0 0 0 0.754808 0 0 0 0 0.754808 0 0 0 0 0.754808 0 0 0 1 0"/>
<feBlend mode="normal" in2="BackgroundImageFix" result="effect1_dropShadow_205_683"/>
<feBlend mode="normal" in="SourceGraphic" in2="effect1_dropShadow_205_683" result="shape"/>
</filter>
<linearGradient id="paint0_linear_205_683" x1="176" y1="108" x2="505.5" y2="495.5" gradientUnits="userSpaceOnUse">
<stop stop-color="#424242"/>
<stop offset="1" stop-color="#5D5D5D"/>
</linearGradient>
<linearGradient id="paint2_linear_205_683" x1="30.8429" y1="23" x2="495.157" y2="503" gradientUnits="userSpaceOnUse">
<stop stop-color="#CECECE" stop-opacity="0.45"/>
<stop offset="0.451923" stop-color="#CECECE" stop-opacity="0"/>
<stop offset="1" stop-color="#CECECE" stop-opacity="0.45"/>
</linearGradient>
<clipPath id="clip0_205_683">
<rect x="23" y="23" width="480" height="480" rx="37" fill="white"/>
</clipPath>
<pattern id="pattern0_205_683" patternUnits="userSpaceOnUse" patternTransform="matrix(27.93 0 0 55.86 256.35 256.35)" preserveAspectRatio="none" viewBox="0 0 73.5 147" width="1" height="1">
<use xlink:href="#pattern0_205_683_inner" transform="translate(-73.5 0)"/>
<g id="pattern0_205_683_inner">
<circle cx="17.5" cy="17.5" r="17.5" fill="url(#paint1_linear_205_683)"/>
</g>
<use xlink:href="#pattern0_205_683_inner" transform="translate(-36.75 73.5)"/>
<use xlink:href="#pattern0_205_683_inner" transform="translate(36.75 73.5)"/>
</pattern><linearGradient id="paint1_linear_205_683" x1="17.5" y1="0" x2="17.5" y2="35" gradientUnits="userSpaceOnUse">
<stop stop-color="#D9D9D9" stop-opacity="0.7"/>
<stop offset="1" stop-color="#737373" stop-opacity="0.2"/>
</linearGradient>
</defs>
</svg>
